{"title":"The Voice - Australia Finalists, Breakfast Show Today - pKcMvA","uid":7354800,"size":49634234,"categoryP":"video","categoryS":"tv_shows","magnet":"?xt=urn:btih:f39227840796525f58a8e924447d119b539d440f&amp;dn=The+Voice+-+Australia+Finalists%2C+Breakfast+Show+Today+-+pKcMvA&amp;tr=udp%3A%2F%2Ftracker.openbittorrent.com%3A80&amp;tr=udp%3A%2F%2Fopen.demonii.com%3A1337&amp;tr=udp%3A%2F%2Ftracker.coppersurfer.tk%3A6969&amp;tr=udp%3A%2F%2Fexodus.desync.com%3A6969","seeders":0,"leechers":0,"uploader":"PKCMVA","files":1,"time":1339723588,"description":"The Voice - Australia Finalists, Breakfast Show Today - pKcMvA\n\nFormat                                   : AVI\nFormat/Info                              : Audio Video Interleave\nFile size                                : 47.3 MiB\nDuration                                 : 9mn 3s\nOverall bit rate                         : 731 Kbps\n\nVideo\n\nFormat                                   : MPEG-4 Visual\nFormat profile                           : Advanced Simple@L5\nFormat settings, BVOP                    : 2\nFormat settings, QPel                    : No\nFormat settings, GMC                     : No warppoints\nFormat settings, Matrix                  : Default (H.263)\nMuxing mode                              : Packed bitstream\nCodec ID                                 : XVID\nCodec ID/Hint                            : XviD\nDuration                                 : 9mn 3s\nBit rate                                 : 593 Kbps\nWidth                                    : 624 pixels\nHeight                                   : 352 pixels\nDisplay aspect ratio                     : 16:9\nFrame rate                               : 25.000 fps\nColor space                              : YUV\nChroma subsampling                       : 4:2:0\nBit depth                                : 8 bits\nScan type                                : Progressive\nBits/(Pixel*Frame)                       : 0.108\nStream size                              : 38.4 MiB (81%)\nWriting library                          : XviD 64\n\nAudio\n\nFormat                                   : MPEG Audio\nFormat version                           : Version 1\nFormat profile                           : Layer 3\nCodec ID                                 : 55\nCodec ID/Hint                            : MP3\nDuration                                 : 9mn 3s\nBit rate mode                            : Constant\nBit rate                                 : 128 Kbps\nChannel(s)                               : 2 channels\nSampling rate                            : 44.1 KHz\nStream size                              : 8.29 MiB (18%)\nAlignment                                : Split accross interleaves\nInterleave, duration                     : 40 ms (1.00 video frame)","torrent":{"xt":"urn:btih:f39227840796525f58a8e924447d119b539d440f","amp;dn":"The+Voice+-+Australia+Finalists%2C+Breakfast+Show+Today+-+pKcMvA","amp;tr":["udp%3A%2F%2Ftracker.openbittorrent.com%3A80","udp%3A%2F%2Fopen.demonii.com%3A1337","udp%3A%2F%2Ftracker.coppersurfer.tk%3A6969","udp%3A%2F%2Fexodus.desync.com%3A6969"],"infoHash":"f39227840796525f58a8e924447d119b539d440f","infoHashBuffer":{"type":"Buffer","data":[243,146,39,132,7,150,82,95,88,168,233,36,68,125,17,155,83,157,68,15]},"announce":[],"urlList":[]}}